<mxfile host="app.diagrams.net" modified="2023-05-14T13:54:58.278Z" agent="Mozilla/5.0 (Windows NT 10.0; Win64; x64) AppleWebKit/537.36 (KHTML, like Gecko) Chrome/113.0.0.0 Safari/537.36" version="21.3.0" etag="vDw65o1j0Td1ADvntDD_" type="github">
  <diagram name="페이지-1" id="a4SbHN-79q9YJs82kRkk">
    <mxGraphModel>
      <root>
        <mxCell id="0" />
        <mxCell id="1" parent="0" />
      </root>
    </mxGraphModel>
  </diagram>
</mxfile>
